<?xml version="1.0" standalone="no"?>
<!DOCTYPE svg PUBLIC "-//W3C//DTD SVG 20010904//EN"
 "http://www.w3.org/TR/2001/REC-SVG-20010904/DTD/svg10.dtd">
<svg version="1.0" xmlns="http://www.w3.org/2000/svg"
 width="800.000000pt" height="800.000000pt" viewBox="0 0 800.000000 800.000000"
 preserveAspectRatio="xMidYMid meet">
<metadata>
Created by potrace 1.16, written by Peter Selinger 2001-2019
</metadata>
<g transform="translate(0.000000,800.000000) scale(0.100000,-0.100000)"
fill="#000000" stroke="none">
<path d="M3740 6725 c-356 -36 -660 -123 -970 -280 -779 -391 -1324 -1130
-1470 -1991 -64 -381 -46 -777 55 -1162 72 -272 202 -560 364 -803 119 -178
202 -280 346 -424 772 -772 1917 -1012 2935 -614 864 337 1501 1097 1684 2009
181 899 -96 1819 -744 2470 -225 226 -434 376 -730 525 -447 224 -971 320
-1470 270z m620 -200 c301 -46 548 -126 815 -264 246 -127 425 -260 635 -470
208 -209 346 -403 481 -676 120 -245 201 -510 241 -795 17 -124 17 -516 0
-635 -67 -467 -228 -860 -500 -1225 -99 -132 -328 -366 -452 -462 -372 -286
-758 -451 -1230 -525 -141 -22 -526 -25 -665 -5 -477 68 -897 244 -1261 528
-452 353 -789 889 -913 1449 -44 201 -55 311 -55 550 0 241 13 373 55 560 188
828 772 1510 1559 1818 236 92 416 134 740 171 78 9 450 -4 550 -19z"/>
<path d="M3813 6460 c-362 -28 -729 -142 -1040 -321 -426 -245 -778 -622 -993
-1064 -139 -288 -216 -580 -241 -919 -34 -481 90 -999 341 -1416 387 -645
1019 -1067 1765 -1181 184 -28 502 -31 680 -5 467 67 868 239 1225 527 127
103 328 310 424 439 253 339 410 725 472 1155 26 178 23 496 -5 680 -63 415
-215 783 -460 1113 -344 464 -833 789 -1391 926 -246 60 -534 85 -777 66z
m425 -90 c441 -47 845 -206 1201 -472 124 -94 366 -336 459 -460 241 -322 396
-688 457 -1078 25 -162 31 -457 11 -624 -50 -433 -206 -823 -468 -1174 -97
-129 -338 -369 -468 -466 -345 -256 -729 -409 -1160 -462 -163 -20 -467 -15
-630 11 -391 62 -756 216 -1078 457 -109 81 -339 306 -424 413 -337 426 -518
945 -518 1485 0 525 164 1011 484 1440 121 162 356 388 531 511 316 221 698
367 1080 413 136 17 394 19 523 6z"/>
<path d="M3885 6120 c-65 -13 -155 -48 -214 -82 -118 -70 -238 -223 -276 -353
-7 -22 -16 -40 -21 -40 -5 1 -38 4 -74 9 -219 26 -445 -123 -521 -345 -30 -89
-31 -210 -1 -304 89 -284 416 -432 682 -309 29 13 54 23 55 22 2 -2 -41 -156
-95 -343 -54 -187 -97 -341 -96 -342 1 -2 63 15 137 38 222 67 296 80 489 86
215 7 320 -8 558 -77 92 -26 168 -47 169 -47 1 1 -43 155 -97 342 -54 187 -97
341 -95 343 1 1 26 -9 56 -23 30 -13 89 -30 131 -36 302 -47 575 192 572 501
-2 147 -54 261 -164 364 -103 95 -251 145 -380 130 -36 -5 -69 -8 -74 -9 -5 0
-14 18 -21 40 -62 210 -254 384 -472 430 -73 16 -183 18 -248 5z m289 -144
c35 -13 82 -36 104 -50 134 -84 232 -257 232 -408 l0 -59 44 26 c24 14 75 32
112 40 260 54 493 -169 452 -432 -13 -85 -51 -154 -118 -216 -97 -90 -221
-123 -341 -93 -143 37 -247 137 -280 271 -7 28 -16 54 -20 59 -5 5 -24 -5 -43
-22 -53 -47 -155 -91 -240 -104 -131 -20 -272 14 -374 92 -29 22 -57 38 -61
35 -5 -2 -11 -23 -15 -46 -10 -60 -51 -135 -103 -186 -186 -180 -485 -130
-606 101 -30 58 -32 67 -32 171 0 101 2 114 28 163 85 161 251 243 421 207 37
-8 88 -26 112 -40 l44 -26 0 53 c0 156 91 317 233 414 124 84 307 104 451 50z
m-252 -1109 c107 -13 216 0 309 37 34 14 63 25 64 23 5 -8 204 -711 202 -713
-2 -2 -25 4 -52 12 -232 70 -605 73 -865 5 -41 -10 -76 -18 -77 -17 -3 2 197
698 203 708 2 3 32 -5 66 -19 34 -14 102 -30 150 -36z"/>
<path d="M2400 4091 c-102 -31 -302 -197 -433 -361 -71 -89 -107 -160 -107
-215 0 -39 6 -46 207 -245 239 -236 267 -255 378 -255 61 0 83 6 168 43 159
69 135 76 294 -88 76 -78 140 -146 141 -151 2 -5 -16 -31 -40 -58 -53 -59 -99
-149 -105 -205 -3 -22 2 -68 11 -102 8 -33 15 -88 15 -121 -1 -86 26 -142 89
-185 27 -18 70 -58 94 -88 35 -42 57 -59 97 -74 29 -10 76 -36 104 -57 70 -53
109 -62 236 -54 129 8 175 27 220 90 18 25 34 45 37 45 3 0 23 -18 45 -40 22
-22 43 -40 45 -40 16 0 65 34 83 56 l21 27 21 -27 c11 -14 34 -33 50 -42 34
-17 51 -11 93 36 l29 33 33 -39 c18 -21 33 -42 34 -46 0 -3 19 -15 43 -26 52
-25 233 -39 293 -23 22 6 64 29 93 50 30 22 75 47 102 56 35 12 59 30 95 71
26 31 70 73 99 94 64 47 88 98 87 185 -1 33 6 87 14 120 9 33 14 79 11 102 -6
56 -49 140 -104 204 -24 29 -43 55 -41 59 2 5 65 72 142 150 159 164 135 157
293 88 85 -37 107 -43 168 -43 113 0 140 18 378 254 201 200 207 207 207 246
0 85 -92 219 -262 380 -148 141 -279 216 -347 200 -33 -7 -369 -348 -421 -427
-44 -67 -64 -136 -55 -192 4 -23 26 -84 50 -136 74 -162 80 -141 -92 -312
l-148 -147 -52 32 c-28 18 -65 39 -81 48 -19 11 -32 28 -37 47 -11 51 -61 120
-104 142 -99 50 -209 7 -265 -103 -29 -57 -30 -60 -17 -115 19 -81 19 -85 -33
-209 -26 -62 -57 -151 -68 -199 -20 -80 -24 -88 -54 -100 -17 -7 -43 -27 -58
-44 -32 -39 -35 -106 -7 -179 l18 -49 -53 -53 -54 -53 -54 53 -53 53 18 49
c23 59 24 129 4 168 -8 16 -33 37 -59 49 -42 20 -45 25 -56 77 -15 73 -59 202
-98 287 l-30 67 15 61 c19 73 10 113 -37 178 -56 78 -158 104 -240 62 -45 -23
-76 -63 -99 -128 -14 -39 -25 -51 -71 -77 -30 -17 -66 -39 -80 -48 l-26 -17
-149 150 -149 149 13 43 c7 24 30 81 51 128 21 47 41 104 45 127 8 53 -14 134
-52 190 -39 58 -372 402 -405 419 -29 15 -50 16 -88 5z m268 -306 c95 -96 172
-180 172 -188 0 -7 -5 -18 -12 -25 -30 -30 -55 -12 -219 158 -90 94 -165 178
-167 186 -5 20 16 44 38 44 9 0 94 -79 188 -175z m-110 -109 c95 -96 172 -181
172 -188 0 -20 -21 -38 -45 -38 -23 0 -355 338 -355 362 0 19 20 38 40 38 9 0
94 -79 188 -174z m-110 -110 c95 -96 172 -177 172 -181 0 -3 -5 -15 -10 -26
-23 -41 -50 -23 -221 154 -157 160 -185 198 -162 220 24 24 58 -2 221 -167z
m-116 -103 c91 -93 168 -175 171 -183 2 -8 0 -23 -5 -32 -20 -40 -50 -19 -217
153 -91 94 -168 178 -169 186 -6 25 7 43 30 43 17 0 71 -48 190 -167z m-110
-110 c133 -133 168 -173 168 -194 0 -25 -15 -39 -41 -39 -14 0 -343 339 -347
357 -6 25 7 43 30 43 16 0 72 -49 190 -167z m1344 -254 c100 -61 108 -201 15
-248 -53 -28 -85 -26 -138 4 -52 31 -56 19 -8 -24 33 -29 41 -31 114 -31 l78
0 31 -44 c34 -47 84 -147 77 -154 -2 -2 -17 -1 -33 3 -23 5 -33 15 -46 49 -37
97 -122 136 -221 103 -95 -33 -233 -155 -282 -251 l-16 -31 24 20 c13 11 56
49 94 85 162 153 264 186 329 109 24 -28 44 -76 35 -83 -2 -2 -38 -23 -79 -47
-89 -52 -205 -159 -240 -220 -23 -41 -18 -39 81 50 170 153 253 198 318 171
30 -12 56 -55 67 -107 5 -26 -1 -34 -78 -95 -90 -71 -198 -179 -198 -198 0 -6
41 26 90 72 101 93 189 148 237 148 26 0 36 -6 48 -30 8 -16 15 -40 15 -53 0
-43 -50 -124 -114 -186 -47 -44 -59 -61 -45 -61 26 0 24 -10 -10 -58 -32 -43
-37 -45 -172 -58 -92 -8 -120 0 -170 52 -31 31 -55 46 -81 50 -52 9 -101 42
-142 96 -23 30 -46 49 -66 53 -65 14 -102 97 -83 189 9 43 8 54 -10 84 -46 78
-15 179 89 291 78 84 146 132 218 151 l61 17 6 49 c8 65 32 110 72 134 41 26
91 25 133 -1z m1001 1 c40 -24 73 -87 73 -139 l0 -40 58 -17 c74 -21 149 -72
224 -153 107 -117 138 -214 91 -293 -18 -30 -19 -41 -10 -84 19 -92 -18 -175
-84 -189 -21 -5 -41 -22 -64 -53 -37 -52 -70 -75 -133 -91 -26 -7 -54 -25 -73
-46 -52 -56 -88 -68 -188 -61 -130 10 -139 13 -172 58 -34 48 -36 58 -9 58 16
0 6 14 -44 61 -66 61 -116 142 -116 186 0 13 7 37 15 53 36 69 139 21 313
-144 34 -32 62 -54 62 -47 0 20 -117 137 -202 203 -43 33 -78 65 -78 71 0 33
28 92 54 114 61 51 144 13 327 -150 89 -80 107 -93 94 -66 -30 56 -125 149
-217 210 -48 31 -93 59 -99 61 -18 6 -4 51 27 87 26 32 76 48 116 38 40 -11
146 -80 205 -137 33 -30 74 -68 92 -85 l33 -30 -22 44 c-33 67 -154 180 -232
219 -127 62 -218 30 -267 -95 -9 -23 -21 -34 -43 -38 -16 -4 -31 -5 -33 -3 -7
7 43 107 77 154 l31 44 76 0 c77 0 108 11 138 50 23 29 13 31 -30 5 -52 -30
-85 -32 -136 -5 -73 37 -88 121 -36 198 48 71 119 91 182 52z"/>
<path d="M3650 4022 c-38 -6 -77 -38 -115 -95 -19 -29 -35 -55 -35 -60 0 -4
17 4 38 17 82 55 174 69 268 42 l49 -15 -40 36 c-72 64 -114 83 -165 75z"/>
<path d="M4288 4016 c-37 -13 -97 -57 -132 -95 l-19 -21 48 21 c70 31 162 24
245 -19 35 -18 65 -31 67 -29 7 8 -61 99 -91 121 -42 31 -74 37 -118 22z"/>
<path d="M3825 3646 c-27 -13 -75 -43 -105 -68 -30 -24 -70 -54 -88 -67 -73
-51 -137 -46 -149 11 -6 31 -6 31 -15 8 -5 -13 -6 -37 -3 -52 16 -72 115 -77
255 -13 65 29 104 40 164 45 70 6 80 10 101 36 22 27 23 27 29 7 9 -27 45 -40
126 -46 48 -4 86 -15 144 -43 139 -66 237 -58 252 22 8 43 -10 69 -20 29 -13
-50 -79 -52 -148 -4 -18 13 -58 43 -88 67 -110 90 -208 115 -255 67 l-25 -24
-25 24 c-31 32 -83 33 -150 1z"/>
</g>
</svg>
